#!OML:ASF F:\VICON\USERDATA\INSTALL\rory3\rory3.ASF
:FULLY-SPECIFIED
:DEGREES
3278
root -5.71039 18.6778 2.89809 -352.941 -1.75974 357.305
lowerback 7.29368 2.69416 -7.67267
upperback 3.79752 3.01361 -7.25842
thorax -0.124161 1.46506 -3.47963
lowerneck -8.43149 12.5989 -2.21742
upperneck 28.5922 17.7238 2.45213
head 10.0528 8.12723 3.0671
rclavicle 1.74931e-014 -2.54444e-014
rhumerus -6.7451 31.6632 -90.4239
rradius 118.855
rwrist -28.5763
rhand -32.2963 5.30243
rfingers 7.12502
rthumb -5.5348 -24.6053
lclavicle 1.74931e-014 -2.54444e-014
lhumerus -10.6832 -6.22112 86.8313
lradius 55.5742
lwrist -7.99038
lhand -40.5683 16.1607
lfingers 7.12502
lthumb -13.5155 45.7021
rfemur -18.9708 23.4326 18.0391
rtibia 39.1893
rfoot -21.0934 -8.51866
rtoes -3.60647
lfemur -24.6957 -8.59038 -13.2508
ltibia 27.3467
lfoot -8.47447 -3.27174
ltoes 8.79045
3279
root -5.74391 18.6763 2.89251 -352.953 -0.882809 357.262
lowerback 7.4606 2.5769 -7.58886
upperback 3.77886 2.84397 -7.18974
thorax -0.237399 1.38463 -3.44842
lowerneck -8.46423 12.5915 -2.22239
upperneck 28.7386 17.7125 2.52742
head 10.104 8.12516 3.10283
rclavicle -1.66979e-014 -9.54166e-015
rhumerus -6.73461 32.0456 -90.4233
rradius 119.557
rwrist -27.6644
rhand -32.3985 5.64545
rfingers 7.12502
rthumb -5.63345 -24.2597
lclavicle -1.66979e-014 -9.54166e-015
lhumerus -10.312 -6.38713 86.9336
lradius 55.7703
lwrist -7.50623
lhand -40.3762 15.9947
lfingers 7.12502
lthumb -13.3304 45.5483
rfemur -18.9686 23.5611 17.9432
rtibia 38.8871
rfoot -21.0255 -8.117
rtoes -3.88425
lfemur -24.8822 -8.56394 -13.1257
ltibia 27.3038
lfoot -7.95071 -4.05304
ltoes 8.70861
3280
root -5.7709 18.6759 2.89885 -353.056 -0.162118 357.231
lowerback 7.51554 2.50265 -7.48647
upperback 3.81277 2.75253 -7.122
thorax -0.232204 1.34055 -3.42757
lowerneck -8.49912 12.5875 -2.27842
upperneck 28.8706 17.7329 2.53493
head 10.1525 8.12504 3.12608
rclavicle -1.90833e-014 -3.18055e-014
rhumerus -6.62565 32.5041 -90.3344
rradius 120.174
rwrist -26.5273
rhand -32.449 5.9558
rfingers 7.12502
rthumb -5.68224 -23.948
lclavicle -1.90833e-014 -3.18055e-014
lhumerus -9.93055 -6.55558 87.06
lradius 55.9097
lwrist -7.17857
lhand -40.3332 16.0243
lfingers 7.12502
lthumb -13.289 45.5806
rfemur -18.8424 23.8629 17.8164
rtibia 38.5605
rfoot -21.1117 -7.43407
rtoes -3.62983
lfemur -24.8694 -8.84213 -13.0047
ltibia 27.2151
lfoot -7.64242 -4.39788
ltoes 8.93724
3281
root -5.79431 18.6757 2.91303 -353.234 0.447388 357.247
lowerback 7.51731 2.45531 -7.38865
upperback 3.86449 2.70446 -7.10179
thorax -0.176301 1.31739 -3.45504
lowerneck -8.43447 12.5932 -2.32693
upperneck 28.9949 17.7379 2.62425
head 10.1712 8.13066 3.16391
rclavicle -7.95139e-015 6.04305e-014
rhumerus -6.54877 32.9117 -90.3125
rradius 120.702
rwrist -25.2654
rhand -32.1744 6.04556
rfingers 7.12502
rthumb -5.41713 -23.8652
lclavicle -7.95139e-015 6.04305e-014
lhumerus -9.57734 -6.67834 87.1924
lradius 55.996
lwrist -6.90587
lhand -40.2553 15.7639
lfingers 7.12502
lthumb -13.2139 45.3251
rfemur -18.6216 24.2882 17.641
rtibia 38.231
rfoot -21.2275 -6.63687
rtoes -3.7185
lfemur -24.6896 -9.22264 -12.9553
ltibia 27.0883
lfoot -7.45964 -4.4979
ltoes 9.21448
3282
root -5.8216 18.6746 2.92663 -353.477 1.04042 357.393
lowerback 7.63454 2.41864 -7.47976
upperback 3.91274 2.64219 -7.10098
thorax -0.194459 1.28592 -3.40324
lowerneck -8.34808 12.6293 -2.36968
upperneck 29.1085 17.7823 2.71678
head 10.1811 8.15609 3.20308
rclavicle -2.94201e-014 1.90833e-014
rhumerus -6.51765 33.3511 -90.3264
rradius 121.212
rwrist -24.2544
rhand -31.9826 5.9433
rfingers 7.12502
rthumb -5.23193 -23.9721
lclavicle -2.94201e-014 1.90833e-014
lhumerus -9.19168 -6.77395 87.3279
lradius 56.0222
lwrist -6.72499
lhand -40.2832 15.5817
lfingers 7.12502
lthumb -13.2408 45.1411
rfemur -18.3355 24.7714 17.3824
rtibia 37.9051
rfoot -21.2909 -5.99584
rtoes -4.56173
lfemur -24.477 -9.62347 -13.0501
ltibia 26.9836
lfoot -7.34939 -4.63029
ltoes 9.67558
